<?xml version="1.0" encoding="UTF-8" standalone="no"?>
<!-- Created with Inkscape (http://www.inkscape.org/) -->
<svg
   xmlns:dc="http://purl.org/dc/elements/1.1/"
   xmlns:cc="http://creativecommons.org/ns#"
   xmlns:rdf="http://www.w3.org/1999/02/22-rdf-syntax-ns#"
   xmlns:svg="http://www.w3.org/2000/svg"
   xmlns="http://www.w3.org/2000/svg"
   xmlns:sodipodi="http://sodipodi.sourceforge.net/DTD/sodipodi-0.dtd"
   xmlns:inkscape="http://www.inkscape.org/namespaces/inkscape"
   width="1052.3622"
   height="744.09448"
   id="svg2"
   sodipodi:version="0.32"
   inkscape:version="0.46"
   sodipodi:docname="Shoehoo_sketch.svg"
   inkscape:output_extension="org.inkscape.output.svg.inkscape"
   inkscape:export-filename="/Users/sevi/Pictures/GraphiX/Shoehoo_eyes_hidden_sketch.png"
   inkscape:export-xdpi="90"
   inkscape:export-ydpi="90"
   version="1.0">
  <defs
     id="defs4">
    <inkscape:perspective
       sodipodi:type="inkscape:persp3d"
       inkscape:vp_x="0 : 526.18109 : 1"
       inkscape:vp_y="0 : 1000 : 0"
       inkscape:vp_z="744.09448 : 526.18109 : 1"
       inkscape:persp3d-origin="372.04724 : 350.78739 : 1"
       id="perspective10" />
  </defs>
  <sodipodi:namedview
     id="base"
     pagecolor="#ffffff"
     bordercolor="#666666"
     borderopacity="1.0"
     gridtolerance="10000"
     guidetolerance="10"
     objecttolerance="10"
     inkscape:pageopacity="0.0"
     inkscape:pageshadow="2"
     inkscape:zoom="0.80878059"
     inkscape:cx="552.82782"
     inkscape:cy="375.31854"
     inkscape:document-units="px"
     inkscape:current-layer="layer2"
     showgrid="false"
     inkscape:window-width="1276"
     inkscape:window-height="1002"
     inkscape:window-x="1280"
     inkscape:window-y="32" />
  <metadata
     id="metadata7">
    <rdf:RDF>
      <cc:Work
         rdf:about="">
        <dc:format>image/svg+xml</dc:format>
        <dc:type
           rdf:resource="http://purl.org/dc/dcmitype/StillImage" />
      </cc:Work>
    </rdf:RDF>
  </metadata>
  <g
     inkscape:groupmode="layer"
     id="layer3"
     style="display:inline">
    <g
       id="g2423"
       transform="matrix(-1,0,0,1,1128.5382,-137.6285)">
      <rect
         ry="216.4043"
         rx="74.619995"
         y="378.12476"
         x="154.05669"
         height="449.38345"
         width="432.36194"
         id="rect2389"
         style="fill:#552200;fill-opacity:1;stroke:#000000;stroke-width:12;stroke-linecap:butt;stroke-linejoin:round;stroke-miterlimit:4;stroke-dasharray:none;stroke-opacity:1" />
      <rect
         style="fill:#803300;fill-opacity:1;stroke:#000000;stroke-width:8.64807796;stroke-linecap:butt;stroke-linejoin:round;stroke-miterlimit:4;stroke-dasharray:none;stroke-opacity:1"
         id="rect3191"
         width="301.13974"
         height="326.84488"
         x="219.08241"
         y="420.38922"
         rx="47.804115"
         ry="163.42244" />
    </g>
  </g>
  <g
     inkscape:groupmode="layer"
     id="layer2"
     style="display:inline">
    <path
       sodipodi:type="arc"
       style="fill:#552200;fill-opacity:1;stroke:#000000;stroke-width:12;stroke-linecap:butt;stroke-linejoin:round;stroke-miterlimit:4;stroke-dasharray:none;stroke-opacity:1"
       id="path2392"
       sodipodi:cx="366.40973"
       sodipodi:cy="297.65543"
       sodipodi:rx="123.21743"
       sodipodi:ry="127.27063"
       d="M 489.62716,297.65543 A 123.21743,127.27063 0 1 1 243.1923,297.65543 A 123.21743,127.27063 0 1 1 489.62716,297.65543 z"
       transform="matrix(-1.0002679,0,2.3288389e-8,1.127648,1130.3688,-157.75124)"
       inkscape:export-filename="/Users/sevi/Pictures/GraphiX/Shoehoo_eyes_hidden_sketch.png"
       inkscape:export-xdpi="90"
       inkscape:export-ydpi="90" />
    <path
       style="fill:#2b1100;fill-rule:evenodd;stroke:#000000;stroke-width:9;stroke-linecap:round;stroke-linejoin:round;stroke-miterlimit:4;stroke-dasharray:none;stroke-opacity:1;display:inline"
       d="M 705.19462,44.174917 L 678.65732,20.837178 L 652.92827,18.453528 L 623.08998,32.322698 L 646.57586,38.692898 L 667.07613,45.360717 L 685.13346,64.801917 L 705.19462,44.174917 z"
       id="path2434"
       sodipodi:nodetypes="cccccccc"
       inkscape:export-filename="/Users/sevi/Pictures/GraphiX/Shoehoo_eyes_hidden_sketch.png"
       inkscape:export-xdpi="90"
       inkscape:export-ydpi="90" />
    <path
       sodipodi:nodetypes="cccccccc"
       id="path3206"
       d="M 819.57289,44.174917 L 846.11019,20.837178 L 871.83925,18.453528 L 901.67754,32.322697 L 878.19166,38.692897 L 857.69138,45.360718 L 839.63405,64.801918 L 819.57289,44.174917 z"
       style="fill:#2b1100;fill-rule:evenodd;stroke:#000000;stroke-width:9;stroke-linecap:round;stroke-linejoin:round;stroke-miterlimit:4;stroke-dasharray:none;stroke-opacity:1;display:inline"
       inkscape:export-filename="/Users/sevi/Pictures/GraphiX/Shoehoo_eyes_hidden_sketch.png"
       inkscape:export-xdpi="90"
       inkscape:export-ydpi="90" />
  </g>
  <g
     inkscape:groupmode="layer"
     id="layer4"
     inkscape:label="eyes"
     style="display:inline">
    <path
       sodipodi:type="arc"
       style="fill:#ffb100;fill-opacity:1;stroke:#000000;stroke-width:12;stroke-linecap:butt;stroke-linejoin:round;stroke-miterlimit:4;stroke-dasharray:none;stroke-opacity:1"
       id="path2386"
       sodipodi:cx="306.42227"
       sodipodi:cy="308.19379"
       sodipodi:rx="37.289486"
       sodipodi:ry="37.289486"
       d="M 343.71176,308.19379 A 37.289486,37.289486 0 1 1 269.13279,308.19379 A 37.289486,37.289486 0 1 1 343.71176,308.19379 z"
       transform="translate(402.20386,-137.6285)" />
    <path
       d="M 343.71176,308.19379 A 37.289486,37.289486 0 1 1 269.13279,308.19379 A 37.289486,37.289486 0 1 1 343.71176,308.19379 z"
       sodipodi:ry="37.289486"
       sodipodi:rx="37.289486"
       sodipodi:cy="308.19379"
       sodipodi:cx="306.42227"
       id="path3158"
       style="fill:#ffb100;fill-opacity:1;stroke:#000000;stroke-width:12;stroke-linecap:butt;stroke-linejoin:round;stroke-miterlimit:4;stroke-dasharray:none;stroke-opacity:1"
       sodipodi:type="arc"
       transform="translate(515.69366,-137.6285)" />
    <path
       sodipodi:type="arc"
       style="fill:#e3dbdb;fill-opacity:1;stroke:#000000;stroke-width:12;stroke-linecap:butt;stroke-linejoin:round;stroke-miterlimit:4;stroke-dasharray:none;stroke-opacity:1"
       id="path2399"
       sodipodi:cx="298.31589"
       sodipodi:cy="317.92148"
       sodipodi:rx="11.348973"
       sodipodi:ry="11.348973"
       d="M 309.66486,317.92148 A 11.348973,11.348973 0 1 1 286.96691,317.92148 A 11.348973,11.348973 0 1 1 309.66486,317.92148 z"
       transform="translate(402.20386,-134.38594)" />
    <path
       d="M 309.66486,317.92148 A 11.348973,11.348973 0 1 1 286.96691,317.92148 A 11.348973,11.348973 0 1 1 309.66486,317.92148 z"
       sodipodi:ry="11.348973"
       sodipodi:rx="11.348973"
       sodipodi:cy="317.92148"
       sodipodi:cx="298.31589"
       id="path2401"
       style="fill:#e3dbdb;fill-opacity:1;stroke:#000000;stroke-width:12;stroke-linecap:butt;stroke-linejoin:round;stroke-miterlimit:4;stroke-dasharray:none;stroke-opacity:1"
       sodipodi:type="arc"
       transform="translate(520.55746,-132.76466)" />
    <path
       style="fill:#ff6600;fill-opacity:1;stroke:#000000;stroke-width:13.57272911;stroke-linecap:butt;stroke-linejoin:round;stroke-miterlimit:4;stroke-opacity:1"
       d="M 767.82891,217.05031 L 738.60788,275.93261 L 766.378,334.92319 L 795.59902,276.04089 L 767.82891,217.05031 z"
       id="rect2403" />
  </g>
  <g
     inkscape:groupmode="layer"
     id="layer5"
     inkscape:label="shoes">
    <g
       id="g2414"
       transform="matrix(-1,0,0,1,1118.8105,-136.00722)">
      <path
         inkscape:transform-center-y="17.02346"
         sodipodi:open="true"
         sodipodi:end="9.3965511"
         sodipodi:start="6.2635544"
         transform="matrix(-0.9953742,-9.3281344e-3,1.0628298e-2,-1.1341103,547.63346,1852.2277)"
         d="M 382.61034,878.97961 A 82.68911,36.478844 0 0 1 217.28099,880.72523"
         sodipodi:ry="36.478844"
         sodipodi:rx="82.68911"
         sodipodi:cy="879.69568"
         sodipodi:cx="299.93716"
         id="path2406"
         style="fill:#aa0000;fill-opacity:1;stroke:#000000;stroke-width:12;stroke-linecap:butt;stroke-linejoin:round;stroke-miterlimit:4;stroke-dasharray:none;stroke-opacity:1"
         sodipodi:type="arc" />
      <rect
         y="850.51257"
         x="175.09845"
         height="20.266024"
         width="165.37076"
         id="rect2408"
         style="fill:#e3dbdb;fill-opacity:1;stroke:#000000;stroke-width:12;stroke-linecap:butt;stroke-linejoin:round;stroke-miterlimit:4;stroke-dasharray:none;stroke-opacity:1" />
    </g>
    <g
       id="g2418"
       transform="matrix(-1,0,0,1,1118.8105,-136.00722)">
      <path
         sodipodi:type="arc"
         style="fill:#aa0000;fill-opacity:1;stroke:#000000;stroke-width:12;stroke-linecap:butt;stroke-linejoin:round;stroke-miterlimit:4;stroke-dasharray:none;stroke-opacity:1"
         id="path2410"
         sodipodi:cx="299.93716"
         sodipodi:cy="879.69568"
         sodipodi:rx="82.68911"
         sodipodi:ry="36.478844"
         d="M 382.61034,878.97961 A 82.68911,36.478844 0 0 1 217.28099,880.72523"
         transform="matrix(-0.9953742,-9.3281344e-3,1.0628298e-2,-1.1341103,748.67242,1853.0383)"
         sodipodi:start="6.2635544"
         sodipodi:end="9.3965511"
         sodipodi:open="true"
         inkscape:transform-center-y="17.02346" />
      <rect
         style="fill:#e3dbdb;fill-opacity:1;stroke:#000000;stroke-width:12;stroke-linecap:butt;stroke-linejoin:round;stroke-miterlimit:4;stroke-dasharray:none;stroke-opacity:1"
         id="rect2412"
         width="165.37076"
         height="20.266024"
         x="376.13742"
         y="851.32324" />
    </g>
  </g>
  <g
     inkscape:groupmode="layer"
     id="layer6"
     inkscape:label="wings flat"
     style="display:inline">
    <path
       style="fill:#552200;fill-opacity:1;stroke:#000000;stroke-width:12;stroke-linecap:butt;stroke-linejoin:round;stroke-miterlimit:4;stroke-opacity:1"
       d="M 526.52495,362.81276 C 499.61758,497.00175 515.93478,729.07633 531.62076,731.97647 C 547.30673,734.87662 553.33757,623.93284 590.3678,493.77194 C 627.92153,361.77095 622.65761,245.14053 606.97165,242.2404 C 591.28568,239.34025 558.53141,231.83252 526.52495,362.81276 z"
       sodipodi:nodetypes="csssc"
       id="path2411" />
    <path
       sodipodi:nodetypes="csssc"
       d="M 993.29956,362.76845 C 1020.3651,496.92563 1004.3214,729.01929 988.63887,731.93792 C 972.95633,734.85655 966.79473,623.91996 929.61111,493.80279 C 891.90182,361.84616 897.02826,245.20962 912.71079,242.29099 C 928.39334,239.37236 961.13874,231.82603 993.29956,362.76845 z"
       style="fill:#552200;fill-opacity:1;stroke:#000000;stroke-width:12;stroke-linecap:butt;stroke-linejoin:round;stroke-miterlimit:4;stroke-opacity:1"
       id="path3215" />
  </g>
  <g
     inkscape:groupmode="layer"
     id="layer7"
     inkscape:label="wings raised"
     style="display:none">
    <path
       style="fill:#552200;fill-opacity:1;stroke:#000000;stroke-width:13.23756886;stroke-linecap:butt;stroke-linejoin:round;stroke-miterlimit:4;stroke-opacity:1;display:inline"
       d="M 407.34631,138.14955 C 227.95447,79.291682 13.954981,82.194464 7.4060432,97.143523 C 5.2837437,101.98803 15.931573,132.54245 35.273845,170.44054 C 62.601891,223.98553 107.28571,292.1899 157.83036,323.2544 C 181.9031,338.04936 391.37617,300.65348 427.35245,298.25659 C 502.34238,293.26043 554.32817,318.26474 558.91856,302.66598 C 563.21692,288.05953 598.41736,254.05915 579.60817,217.30529 C 557.03852,173.20335 466.19754,160.54263 407.34631,138.14955 z"
       sodipodi:nodetypes="cssssssc"
       id="path3220"
       inkscape:export-filename="/Users/sevi/Pictures/GraphiX/Shoehoo_eyes_hidden_sketch.png"
       inkscape:export-xdpi="90"
       inkscape:export-ydpi="90" />
    <path
       style="fill:#552200;fill-opacity:1;stroke:#000000;stroke-width:8.61557865;stroke-linecap:round;stroke-linejoin:round;stroke-miterlimit:4;stroke-opacity:1"
       d="M 860.05929,63.809889 C 860.05929,63.809889 771.42637,46.435359 731.84303,42.964299 C 692.56992,39.520429 500.85748,34.588678 500.85748,34.588678 C 459.47675,34.588678 494.7152,80.549118 504.1358,137.59441 C 514.0371,197.55054 653.70103,257.37011 695.08176,257.37011 C 695.08176,257.37011 735.99878,231.58517 780.42537,224.77055 C 824.66644,217.9844 865.00994,218.88445 865.00994,218.88445 C 906.39068,218.88445 955.79403,337.70099 955.79403,280.00873 C 955.79403,222.31646 901.44002,63.809889 860.05929,63.809889 z"
       id="rect3222"
       sodipodi:nodetypes="cscsczcsc" />
  </g>
</svg>
